<svg 
 xmlns="http://www.w3.org/2000/svg"
 xmlns:xlink="http://www.w3.org/1999/xlink"
 width="3515px" height="546px">
<path fill-rule="evenodd"  stroke="rgb(255, 255, 255)" stroke-width="40px" stroke-linecap="round" stroke-linejoin="round" fill="rgb(170, 0, 17)"
 d="M3288.477,447.313 L3275.150,355.140 L3194.751,356.337 L3149.651,465.681 L3025.145,424.66 L3188.987,115.172 L3325.883,113.134 L3434.81,446.232 L3288.477,447.313 ZM3228.550,217.821 L3196.943,284.582 L3251.331,288.119 L3228.550,217.821 ZM2996.87,326.284 L2956.856,464.881 L2692.325,434.45 L2811.877,216.8 L2705.403,217.593 L2701.547,104.632 L3031.981,109.493 L2839.1,359.51 L2996.87,326.284 ZM2665.815,323.35 L2618.715,462.199 L2366.16,441.376 L2477.853,219.283 L2371.499,224.599 L2363.687,111.843 L2694.88,105.119 L2509.974,361.287 L2665.815,323.35 ZM2175.956,103.857 L2289.15,106.520 L2310.213,435.480 L2142.945,441.231 L2175.956,103.857 ZM1931.575,346.172 L1938.286,431.923 L1771.179,448.538 L1814.926,102.311 C1814.926,102.311 2104.727,34.516 2109.957,210.936 C2113.261,322.399 1931.575,346.172 1931.575,346.172 ZM1980.585,207.429 C1977.614,162.849 1911.749,182.373 1911.749,182.373 L1913.790,246.459 C1913.790,246.459 1983.557,252.10 1980.585,207.429 ZM1449.372,458.192 L1326.880,332.870 L1337.93,434.870 L1157.841,438.625 L1173.339,92.819 L1285.133,83.547 L1310.84,226.622 L1416.597,81.590 L1564.31,130.470 L1414.28,273.977 L1569.957,382.500 L1449.372,458.192 ZM1055.435,344.634 L1014.588,301.773 L1012.154,357.232 L928.414,353.45 L952.546,295.90 L868.871,295.249 L881.976,226.591 L937.548,236.631 L899.718,177.425 L989.815,170.650 L1003.645,223.693 L1040.798,164.457 L1108.888,212.345 L1049.795,257.781 L1110.101,293.831 L1055.435,344.634 ZM660.688,75.92 L797.665,78.486 L829.111,438.807 L624.999,451.627 L660.688,75.92 ZM405.975,463.691 L313.269,351.23 C313.269,351.23 297.830,334.400 287.929,335.706 C278.28,337.12 270.473,357.938 270.473,357.938 L249.767,442.998 L60.287,436.402 L166.968,82.207 C166.968,82.207 520.824,-9.534 541.991,182.301 C550.688,261.120 446.450,300.910 446.450,300.910 L580.828,401.447 L405.975,463.691 ZM307.202,154.407 L292.741,237.281 C292.741,237.281 379.516,241.923 384.235,198.252 C388.955,154.580 307.202,154.407 307.202,154.407 Z"/>
</svg>